<svg xmlns="http://www.w3.org/2000/svg" width="30" height="40" viewBox="0 0 40 40" fill="none"><path d="M35 25.7866V8.74987C35 8.63378 34.9677 8.51998 34.9067 8.42119C34.8457 8.32241 34.7585 8.24253 34.6547 8.19049L19.6547 0.690491C19.5708 0.648775 19.4786 0.626417 19.3849 0.625065C19.2912 0.623713 19.1984 0.643401 19.1133 0.682679L2.86327 8.18268C2.75475 8.23249 2.66282 8.31243 2.59842 8.41298C2.53402 8.51353 2.49985 8.63046 2.49999 8.74987V28.7499C2.49985 28.8693 2.53402 28.9862 2.59842 29.0868C2.66282 29.1873 2.75475 29.2673 2.86327 29.3171L19.1133 36.8171C19.1983 36.8564 19.2911 36.8762 19.3849 36.8748C19.4786 36.8735 19.5708 36.8511 19.6547 36.8093L23.7109 34.7803C24.1594 35.8489 24.8495 36.7989 25.7269 37.5559C26.6043 38.3129 27.6452 38.8563 28.7679 39.1434C29.8906 39.4304 31.0646 39.4534 32.1977 39.2105C33.3308 38.9676 34.3922 38.4654 35.2985 37.7433C36.2049 37.0212 36.9316 36.0989 37.4216 35.0487C37.9116 33.9986 38.1515 32.8492 38.1226 31.6907C38.0937 30.5322 37.7966 29.3962 37.2549 28.3718C36.7131 27.3474 35.9413 26.4625 35 25.7866ZM25.8891 5.20534L12.5266 12.4007L9.10312 10.821L22.8367 3.67955L25.8891 5.20534ZM11.875 13.4764V23.4272L8.74999 22.0874V12.0342L11.875 13.4764ZM19.3641 1.94362L21.4555 2.98893L7.83671 10.0702C7.78519 10.0971 7.73761 10.1311 7.69531 10.171L4.6164 8.74987L19.3641 1.94362ZM18.75 35.2733L3.74999 28.3499V9.72643L7.49999 11.4577V22.4999C7.50005 22.6222 7.53598 22.7417 7.60333 22.8438C7.67068 22.9459 7.76649 23.0259 7.8789 23.0741L12.2539 24.9491C12.3316 24.9828 12.4153 25.0001 12.5 24.9999C12.6658 24.9999 12.8247 24.934 12.9419 24.8168C13.0591 24.6996 13.125 24.5406 13.125 24.3749V14.0538L18.75 16.6499V35.2733ZM19.3641 15.5561L13.9461 13.0561L27.2562 5.88893L32.9773 8.74987L19.3641 15.5561ZM23.3203 33.5788L20 35.2389V16.6358L33.75 9.76081V25.0577C32.4749 24.4738 31.0616 24.259 29.6706 24.4377C28.2796 24.6165 26.9665 25.1816 25.8804 26.0689C24.7944 26.9562 23.9788 28.1302 23.5262 29.4577C23.0737 30.7851 23.0024 32.2128 23.3203 33.5788ZM30.625 38.1249C29.3889 38.1249 28.1805 37.7583 27.1527 37.0716C26.1249 36.3848 25.3238 35.4087 24.8507 34.2666C24.3777 33.1246 24.2539 31.8679 24.4951 30.6556C24.7362 29.4432 25.3315 28.3295 26.2056 27.4555C27.0797 26.5814 28.1933 25.9861 29.4057 25.745C30.6181 25.5038 31.8747 25.6276 33.0168 26.1006C34.1588 26.5737 35.1349 27.3748 35.8217 28.4026C36.5084 29.4304 36.875 30.6387 36.875 31.8749C36.8731 33.5319 36.214 35.1205 35.0423 36.2922C33.8706 37.4639 32.282 38.123 30.625 38.1249Z" fill="black"></path><path d="M33.308 30.1831L30 33.4912L28.5669 32.0581C28.4497 31.9409 28.2908 31.875 28.125 31.875C27.9592 31.875 27.8003 31.9409 27.683 32.0581C27.5658 32.1753 27.5 32.3343 27.5 32.5C27.5 32.6658 27.5658 32.8248 27.683 32.942L29.558 34.817C29.6161 34.875 29.685 34.9211 29.7608 34.9525C29.8366 34.9839 29.9179 35 30 35C30.0821 35 30.1633 34.9839 30.2392 34.9525C30.315 34.9211 30.3839 34.875 30.4419 34.817L34.1919 31.067C34.25 31.0089 34.296 30.94 34.3274 30.8642C34.3588 30.7884 34.375 30.7071 34.375 30.625C34.375 30.5429 34.3588 30.4617 34.3274 30.3858C34.296 30.31 34.25 30.2411 34.1919 30.1831C34.1339 30.125 34.065 30.079 33.9892 30.0476C33.9133 30.0162 33.8321 30 33.75 30C33.6679 30 33.5866 30.0162 33.5108 30.0476C33.435 30.079 33.3661 30.125 33.308 30.1831Z" fill="black"></path></svg>