<svg xmlns="http://www.w3.org/2000/svg" width="28" height="38" viewBox="0 0 38 38" fill="none"><path d="M32.015 5.98491C30.3091 4.2608 28.2794 2.89083 26.0423 1.95375C23.8053 1.01666 21.4051 0.530931 18.9797 0.524479C16.5543 0.518027 14.1516 0.99098 11.9096 1.91615C9.66762 2.84133 7.63058 4.20047 5.91557 5.91548C4.20057 7.63048 2.84142 9.66753 1.91624 11.9095C0.991072 14.1515 0.518119 16.5542 0.524571 18.9796C0.531022 21.405 1.01675 23.8052 1.95384 26.0422C2.89093 28.2793 4.26089 30.309 5.985 32.0149C7.69085 33.739 9.72064 35.109 11.9577 36.0461C14.1947 36.9831 16.5949 37.4689 19.0203 37.4753C21.4457 37.4818 23.8484 37.0088 26.0904 36.0837C28.3324 35.1585 30.3694 33.7993 32.0844 32.0843C33.7994 30.3693 35.1586 28.3323 36.0838 26.0903C37.0089 23.8483 37.4819 21.4456 37.4754 19.0202C37.469 16.5948 36.9832 14.1946 36.0462 11.9576C35.1091 9.72054 33.7391 7.69076 32.015 5.98491ZM31.1756 31.1755C27.9464 34.4047 23.5667 36.2188 19 36.2188C14.4333 36.2188 10.0536 34.4047 6.82441 31.1755C3.59525 27.9463 1.78112 23.5666 1.78112 18.9999C1.78112 14.4332 3.59525 10.0535 6.82441 6.82432C10.0536 3.59515 14.4333 1.78103 19 1.78103C23.5667 1.78103 27.9464 3.59515 31.1756 6.82432C34.4048 10.0535 36.2189 14.4332 36.2189 18.9999C36.2189 23.5666 34.4048 27.9463 31.1756 31.1755Z" fill="black"></path><path d="M19 3.5625C10.4879 3.5625 3.5625 10.4879 3.5625 19C3.5625 27.5121 10.4879 34.4375 19 34.4375C27.5121 34.4375 34.4375 27.5121 34.4375 19C34.4375 10.4879 27.5121 3.5625 19 3.5625ZM19 33.25C11.1425 33.25 4.75 26.8575 4.75 19C4.75 11.1425 11.1425 4.75 19 4.75C26.8575 4.75 33.25 11.1425 33.25 19C33.25 26.8575 26.8575 33.25 19 33.25Z" fill="black"></path><path d="M19 30.875C12.4521 30.875 7.125 25.5479 7.125 19C7.125 18.8425 7.06244 18.6915 6.95109 18.5802C6.83974 18.4688 6.68872 18.4062 6.53125 18.4062C6.37378 18.4062 6.22276 18.4688 6.11141 18.5802C6.00006 18.6915 5.9375 18.8425 5.9375 19C5.9375 26.2027 11.7973 32.0625 19 32.0625C19.1575 32.0625 19.3085 31.9999 19.4198 31.8886C19.5312 31.7772 19.5937 31.6262 19.5937 31.4688C19.5937 31.3113 19.5312 31.1603 19.4198 31.0489C19.3085 30.9376 19.1575 30.875 19 30.875Z" fill="black"></path><path d="M19.8906 18.4062H19.5938V16.625H21.375C21.5325 16.625 21.6835 16.5624 21.7948 16.4511C21.9062 16.3397 21.9688 16.1887 21.9688 16.0312C21.9688 15.8738 21.9062 15.7228 21.7948 15.6114C21.6835 15.5001 21.5325 15.4375 21.375 15.4375H19.5938V14.8438C19.5938 14.6863 19.5312 14.5353 19.4198 14.4239C19.3085 14.3126 19.1575 14.25 19 14.25C18.8425 14.25 18.6915 14.3126 18.5802 14.4239C18.4688 14.5353 18.4062 14.6863 18.4062 14.8438V15.4375H18.1094C17.5582 15.4375 17.0296 15.6564 16.6399 16.0462C16.2502 16.4359 16.0313 16.9645 16.0313 17.5156C16.0312 18.0668 16.2502 18.5954 16.6399 18.9851C17.0296 19.3748 17.5582 19.5938 18.1094 19.5938H18.4062V21.375H16.625C16.4675 21.375 16.3165 21.4376 16.2052 21.5489C16.0938 21.6603 16.0313 21.8113 16.0313 21.9688C16.0313 22.1262 16.0938 22.2772 16.2052 22.3886C16.3165 22.4999 16.4675 22.5625 16.625 22.5625H18.4062V23.1562C18.4062 23.3137 18.4688 23.4647 18.5802 23.5761C18.6915 23.6874 18.8425 23.75 19 23.75C19.1575 23.75 19.3085 23.6874 19.4198 23.5761C19.5312 23.4647 19.5938 23.3137 19.5938 23.1562V22.5625H19.8906C20.4418 22.5625 20.9704 22.3436 21.3601 21.9538C21.7498 21.5641 21.9688 21.0355 21.9688 20.4844C21.9688 19.9332 21.7498 19.4046 21.3601 19.0149C20.9704 18.6252 20.4418 18.4062 19.8906 18.4062ZM18.4062 18.4062H18.1094C17.8732 18.4062 17.6466 18.3124 17.4796 18.1454C17.3126 17.9784 17.2188 17.7518 17.2188 17.5156C17.2188 17.2794 17.3126 17.0529 17.4796 16.8859C17.6466 16.7188 17.8732 16.625 18.1094 16.625H18.4062V18.4062ZM19.8906 21.375H19.5938V19.5938H19.8906C20.1268 19.5938 20.3534 19.6876 20.5204 19.8546C20.6874 20.0216 20.7812 20.2482 20.7812 20.4844C20.7812 20.7206 20.6874 20.9471 20.5204 21.1141C20.3534 21.2812 20.1268 21.375 19.8906 21.375Z" fill="black"></path></svg>