<svg xmlns="http://www.w3.org/2000/svg" width="30" height="40" viewBox="0 0 40 40" fill="none"><path d="M7.5 31.25C7.12916 31.25 6.76665 31.36 6.45831 31.566C6.14996 31.772 5.90964 32.0649 5.76773 32.4075C5.62581 32.7501 5.58868 33.1271 5.66103 33.4908C5.73338 33.8545 5.91195 34.1886 6.17418 34.4508C6.4364 34.7131 6.77049 34.8916 7.13421 34.964C7.49792 35.0363 7.87492 34.9992 8.21753 34.8573C8.56014 34.7154 8.85298 34.475 9.059 34.1667C9.26503 33.8584 9.375 33.4958 9.375 33.125C9.37444 32.6279 9.17672 32.1513 8.82521 31.7998C8.4737 31.4483 7.99711 31.2506 7.5 31.25ZM7.5 33.75C7.37639 33.75 7.25555 33.7133 7.15277 33.6447C7.04999 33.576 6.96988 33.4784 6.92257 33.3642C6.87527 33.25 6.86289 33.1243 6.88701 33.0031C6.91112 32.8818 6.97065 32.7705 7.05806 32.6831C7.14547 32.5957 7.25683 32.5361 7.37807 32.512C7.49931 32.4879 7.62497 32.5003 7.73918 32.5476C7.85338 32.5949 7.95099 32.675 8.01967 32.7778C8.08834 32.8806 8.125 33.0014 8.125 33.125C8.12481 33.2907 8.0589 33.4496 7.94173 33.5667C7.82456 33.6839 7.6657 33.7498 7.5 33.75Z" fill="black"></path><path d="M33.125 31.25C32.7542 31.25 32.3917 31.36 32.0833 31.566C31.775 31.772 31.5346 32.0649 31.3927 32.4075C31.2508 32.7501 31.2137 33.1271 31.286 33.4908C31.3584 33.8545 31.537 34.1886 31.7992 34.4508C32.0614 34.7131 32.3955 34.8916 32.7592 34.964C33.1229 35.0363 33.4999 34.9992 33.8425 34.8573C34.1851 34.7154 34.478 34.475 34.684 34.1667C34.89 33.8584 35 33.4958 35 33.125C34.9994 32.6279 34.8017 32.1513 34.4502 31.7998C34.0987 31.4483 33.6221 31.2506 33.125 31.25ZM33.125 33.75C33.0014 33.75 32.8806 33.7133 32.7778 33.6447C32.675 33.576 32.5949 33.4784 32.5476 33.3642C32.5003 33.25 32.4879 33.1243 32.512 33.0031C32.5361 32.8818 32.5957 32.7705 32.6831 32.6831C32.7705 32.5957 32.8818 32.5361 33.0031 32.512C33.1243 32.4879 33.25 32.5003 33.3642 32.5476C33.4784 32.5949 33.576 32.675 33.6447 32.7778C33.7134 32.8806 33.75 33.0014 33.75 33.125C33.7498 33.2907 33.6839 33.4496 33.5667 33.5667C33.4496 33.6839 33.2907 33.7498 33.125 33.75Z" fill="black"></path><path d="M9.375 26.875H11.25C11.4158 26.875 11.5747 26.8092 11.6919 26.6919C11.8092 26.5747 11.875 26.4158 11.875 26.25C11.875 26.0842 11.8092 25.9253 11.6919 25.8081C11.5747 25.6908 11.4158 25.625 11.25 25.625H9.375C9.20924 25.625 9.05027 25.6908 8.93306 25.8081C8.81585 25.9253 8.75 26.0842 8.75 26.25C8.75 26.4158 8.81585 26.5747 8.93306 26.6919C9.05027 26.8092 9.20924 26.875 9.375 26.875Z" fill="black"></path><path d="M37.1875 6.875H15.3125C14.7325 6.87564 14.1765 7.10632 13.7664 7.51641C13.3563 7.92651 13.1256 8.48254 13.125 9.0625V16.25H6.25C6.14712 16.2502 6.04586 16.2756 5.95512 16.3241C5.86439 16.3726 5.78697 16.4427 5.72969 16.5281L0.729688 24.0281C0.661586 24.131 0.625185 24.2516 0.625 24.375V33.125C0.625 33.2908 0.690848 33.4497 0.808058 33.5669C0.925268 33.6842 1.08424 33.75 1.25 33.75H3.80312C3.95068 34.6237 4.40293 35.417 5.07967 35.989C5.75641 36.5611 6.61388 36.8749 7.5 36.8749C8.38612 36.8749 9.24359 36.5611 9.92033 35.989C10.5971 35.417 11.0493 34.6237 11.1969 33.75H29.4281C29.5757 34.6237 30.0279 35.417 30.7047 35.989C31.3814 36.5611 32.2389 36.8749 33.125 36.8749C34.0111 36.8749 34.8686 36.5611 35.5453 35.989C36.2221 35.417 36.6743 34.6237 36.8219 33.75H38.75C38.9158 33.75 39.0747 33.6842 39.1919 33.5669C39.3092 33.4497 39.375 33.2908 39.375 33.125V9.0625C39.3744 8.48254 39.1437 7.92651 38.7336 7.51641C38.3235 7.10632 37.7675 6.87564 37.1875 6.875ZM5.33437 19.375H10.625V23.75H2.41797L5.33437 19.375ZM1.875 27.5H3.125C3.29076 27.5 3.44973 27.5658 3.56694 27.6831C3.68415 27.8003 3.75 27.9592 3.75 28.125C3.75 28.2908 3.68415 28.4497 3.56694 28.5669C3.44973 28.6842 3.29076 28.75 3.125 28.75H1.875V27.5ZM7.5 35.625C7.00555 35.625 6.5222 35.4784 6.11107 35.2037C5.69995 34.929 5.37952 34.5385 5.1903 34.0817C5.00108 33.6249 4.95157 33.1222 5.04804 32.6373C5.1445 32.1523 5.3826 31.7069 5.73223 31.3572C6.08186 31.0076 6.52732 30.7695 7.01227 30.673C7.49723 30.5766 7.99989 30.6261 8.45671 30.8153C8.91352 31.0045 9.30397 31.325 9.57867 31.7361C9.85338 32.1472 10 32.6305 10 33.125C9.99926 33.7878 9.73562 34.4233 9.26694 34.8919C8.79826 35.3606 8.16281 35.6243 7.5 35.625ZM13.125 32.5H11.1969C11.0493 31.6263 10.5971 30.833 9.92033 30.261C9.24359 29.6889 8.38612 29.3751 7.5 29.3751C6.61388 29.3751 5.75641 29.6889 5.07967 30.261C4.40293 30.833 3.95068 31.6263 3.80312 32.5H1.875V30H3.125C3.62228 30 4.09919 29.8025 4.45083 29.4508C4.80246 29.0992 5 28.6223 5 28.125C5 27.6277 4.80246 27.1508 4.45083 26.7992C4.09919 26.4475 3.62228 26.25 3.125 26.25H1.875V25H11.25C11.4158 25 11.5747 24.9342 11.6919 24.8169C11.8092 24.6997 11.875 24.5408 11.875 24.375V18.75C11.875 18.5842 11.8092 18.4253 11.6919 18.3081C11.5747 18.1908 11.4158 18.125 11.25 18.125H6.16797L6.58437 17.5H13.125V32.5ZM33.125 35.625C32.6305 35.625 32.1472 35.4784 31.7361 35.2037C31.325 34.929 31.0045 34.5385 30.8153 34.0817C30.6261 33.6249 30.5766 33.1222 30.673 32.6373C30.7695 32.1523 31.0076 31.7069 31.3572 31.3572C31.7069 31.0076 32.1523 30.7695 32.6373 30.673C33.1222 30.5766 33.6249 30.6261 34.0817 30.8153C34.5385 31.0045 34.929 31.325 35.2037 31.7361C35.4784 32.1472 35.625 32.6305 35.625 33.125C35.6243 33.7878 35.3606 34.4233 34.8919 34.8919C34.4233 35.3606 33.7878 35.6243 33.125 35.625ZM38.125 32.5H36.8219C36.6743 31.6263 36.2221 30.833 35.5453 30.261C34.8686 29.6889 34.0111 29.3751 33.125 29.3751C32.2389 29.3751 31.3814 29.6889 30.7047 30.261C30.0279 30.833 29.5757 31.6263 29.4281 32.5H14.375V27.5H38.125V32.5ZM38.125 26.25H14.375V9.0625C14.3752 8.81392 14.474 8.57559 14.6498 8.39982C14.8256 8.22405 15.0639 8.12521 15.3125 8.125H37.1875C37.4361 8.12521 37.6744 8.22405 37.8502 8.39982C38.026 8.57559 38.1248 8.81392 38.125 9.0625V26.25Z" fill="black"></path></svg>