<svg xmlns="http://www.w3.org/2000/svg" width="30" height="40" viewBox="0 0 40 40" fill="none"><path d="M20 3.125C13.7969 3.125 8.75 8.17188 8.75 14.375C8.75 20.5781 13.7969 25.625 20 25.625C26.2031 25.625 31.25 20.5781 31.25 14.375C31.25 8.17188 26.2031 3.125 20 3.125ZM20 24.375C18.0222 24.375 16.0888 23.7885 14.4443 22.6897C12.7998 21.5909 11.5181 20.0291 10.7612 18.2018C10.0043 16.3746 9.8063 14.3639 10.1921 12.4241C10.578 10.4843 11.5304 8.70246 12.9289 7.30393C14.3275 5.90541 16.1093 4.953 18.0491 4.56715C19.9889 4.1813 21.9996 4.37933 23.8268 5.1362C25.6541 5.89308 27.2159 7.17481 28.3147 8.8193C29.4135 10.4638 30 12.3972 30 14.375C29.997 17.0263 28.9425 19.5681 27.0678 21.4428C25.1931 23.3175 22.6513 24.372 20 24.375Z" fill="black"></path><path d="M20 0.625C12.418 0.625 6.25 6.79297 6.25 14.375C6.25085 16.6635 6.8229 18.9155 7.9143 20.9269C9.00569 22.9384 10.5819 24.6456 12.5 25.8937V38.75C12.4999 38.8653 12.5318 38.9785 12.5921 39.0768C12.6524 39.1752 12.7387 39.2549 12.8415 39.3073C12.9443 39.3596 13.0595 39.3824 13.1745 39.3733C13.2895 39.3642 13.3997 39.3234 13.493 39.2555L20 34.5227L26.507 39.2555C26.6003 39.3234 26.7105 39.3642 26.8255 39.3733C26.9405 39.3824 27.0557 39.3596 27.1585 39.3073C27.2613 39.2549 27.3476 39.1752 27.4079 39.0768C27.4682 38.9785 27.5 38.8653 27.5 38.75V25.8937C29.4181 24.6456 30.9943 22.9384 32.0857 20.9269C33.1771 18.9155 33.7492 16.6635 33.75 14.375C33.75 6.79297 27.582 0.625 20 0.625ZM26.25 37.5227L20.368 33.2445C20.261 33.1668 20.1322 33.125 20 33.125C19.8678 33.125 19.739 33.1668 19.632 33.2445L13.75 37.5227V26.6203C15.6849 27.6093 17.827 28.125 20 28.125C22.173 28.125 24.3151 27.6093 26.25 26.6203V37.5227ZM20 26.875C13.1078 26.875 7.5 21.2672 7.5 14.375C7.5 7.48281 13.1078 1.875 20 1.875C26.8922 1.875 32.5 7.48281 32.5 14.375C32.5 21.2672 26.8922 26.875 20 26.875Z" fill="black"></path><path d="M27.6477 13.1243C27.8889 12.8546 28.047 12.5207 28.1027 12.1632C28.1584 11.8056 28.1094 11.4395 27.9616 11.1091C27.8138 10.7788 27.5735 10.4983 27.2698 10.3015C26.9661 10.1047 26.6119 10 26.25 10.0001H23.125V7.18759C23.1257 6.61227 22.8997 6.05985 22.4959 5.64998C22.0922 5.2401 21.5432 5.00579 20.968 4.99777C20.3927 4.98976 19.8374 5.20869 19.4224 5.60716C19.0075 6.00563 18.7661 6.55154 18.7508 7.12666L18.1703 10.3212L17.2414 11.2501H16.25C16.25 11.0843 16.1842 10.9254 16.0669 10.8082C15.9497 10.6909 15.7908 10.6251 15.625 10.6251H13.125C12.9592 10.6251 12.8003 10.6909 12.6831 10.8082C12.5658 10.9254 12.5 11.0843 12.5 11.2501V20.0001C12.5 20.1659 12.5658 20.3248 12.6831 20.442C12.8003 20.5592 12.9592 20.6251 13.125 20.6251H15.625C15.7908 20.6251 15.9497 20.5592 16.0669 20.442C16.1842 20.3248 16.25 20.1659 16.25 20.0001H17.2414L18.3078 21.0673C18.4252 21.1844 18.5842 21.2502 18.75 21.2501H25C25.3059 21.2502 25.6072 21.1754 25.8776 21.0322C26.1479 20.8891 26.3791 20.682 26.551 20.4289C26.723 20.1759 26.8303 19.8846 26.8638 19.5806C26.8972 19.2765 26.8558 18.9688 26.743 18.6845C27.0514 18.6003 27.3331 18.4387 27.5615 18.215C27.7899 17.9914 27.9574 17.713 28.048 17.4065C28.1387 17.0999 28.1494 16.7753 28.0794 16.4634C28.0093 16.1515 27.8607 15.8627 27.6477 15.6243C27.9551 15.2805 28.1251 14.8355 28.1251 14.3743C28.1251 13.9131 27.9551 13.4681 27.6477 13.1243ZM15 19.3751H13.75V11.8751H15V19.3751ZM24.375 13.7501H26.25C26.4158 13.7501 26.5747 13.8159 26.6919 13.9332C26.8092 14.0504 26.875 14.2093 26.875 14.3751C26.875 14.5409 26.8092 14.6998 26.6919 14.817C26.5747 14.9342 26.4158 15.0001 26.25 15.0001H24.375C24.2092 15.0001 24.0503 15.0659 23.9331 15.1832C23.8158 15.3004 23.75 15.4593 23.75 15.6251C23.75 15.7909 23.8158 15.9498 23.9331 16.067C24.0503 16.1842 24.2092 16.2501 24.375 16.2501H26.25C26.4158 16.2501 26.5747 16.3159 26.6919 16.4332C26.8092 16.5504 26.875 16.7093 26.875 16.8751C26.875 17.0409 26.8092 17.1998 26.6919 17.317C26.5747 17.4342 26.4158 17.5001 26.25 17.5001H24.375C24.2092 17.5001 24.0503 17.5659 23.9331 17.6832C23.8158 17.8004 23.75 17.9593 23.75 18.1251C23.75 18.2909 23.8158 18.4498 23.9331 18.567C24.0503 18.6842 24.2092 18.7501 24.375 18.7501H25C25.1658 18.7501 25.3247 18.8159 25.4419 18.9332C25.5592 19.0504 25.625 19.2093 25.625 19.3751C25.625 19.5409 25.5592 19.6998 25.4419 19.817C25.3247 19.9342 25.1658 20.0001 25 20.0001H19.0086L17.9422 18.9329C17.8248 18.8158 17.6658 18.75 17.5 18.7501H16.25V12.5001H17.5C17.6658 12.5002 17.8248 12.4344 17.9422 12.3173L19.1922 11.0673C19.282 10.9773 19.3423 10.862 19.3648 10.7368L19.9898 7.29931C19.9967 7.26248 20.0001 7.22507 20 7.18759C20 6.93895 20.0988 6.7005 20.2746 6.52468C20.4504 6.34886 20.6889 6.25009 20.9375 6.25009C21.1861 6.25009 21.4246 6.34886 21.6004 6.52468C21.7762 6.7005 21.875 6.93895 21.875 7.18759V10.6251C21.875 10.7909 21.9408 10.9498 22.0581 11.067C22.1753 11.1842 22.3342 11.2501 22.5 11.2501H26.25C26.4158 11.2501 26.5747 11.3159 26.6919 11.4332C26.8092 11.5504 26.875 11.7093 26.875 11.8751C26.875 12.0409 26.8092 12.1998 26.6919 12.317C26.5747 12.4342 26.4158 12.5001 26.25 12.5001H24.375C24.2092 12.5001 24.0503 12.5659 23.9331 12.6832C23.8158 12.8004 23.75 12.9593 23.75 13.1251C23.75 13.2909 23.8158 13.4498 23.9331 13.567C24.0503 13.6842 24.2092 13.7501 24.375 13.7501Z" fill="black"></path></svg>